<mxfile host="app.diagrams.net" modified="2024-01-11T07:13:46.096Z" agent="Mozilla/5.0 (X11; CrOS x86_64 14541.0.0) AppleWebKit/537.36 (KHTML, like Gecko) Chrome/114.0.0.0 Safari/537.36" etag="RWRYSKmqEpNz048hn5Xm" version="22.1.18" type="device">
  <diagram name="Page-1" id="4QGNPO6Ucv3KK7Wjg2tL">
    <mxGraphModel dx="1886" dy="812" grid="1" gridSize="10" guides="1" tooltips="1" connect="1" arrows="1" fold="1" page="1" pageScale="1" pageWidth="827" pageHeight="1169" math="0" shadow="0">
      <root>
        <mxCell id="0" />
        <mxCell id="1" parent="0" />
        <mxCell id="Ju1i_h3NqUPSqZvTvu3--2" value="AWS Account 1" style="points=[[0,0],[0.25,0],[0.5,0],[0.75,0],[1,0],[1,0.25],[1,0.5],[1,0.75],[1,1],[0.75,1],[0.5,1],[0.25,1],[0,1],[0,0.75],[0,0.5],[0,0.25]];outlineConnect=0;gradientColor=none;html=1;whiteSpace=wrap;fontSize=12;fontStyle=0;container=1;pointerEvents=0;collapsible=0;recursiveResize=0;shape=mxgraph.aws4.group;grIcon=mxgraph.aws4.group_account;strokeColor=#CD2264;fillColor=none;verticalAlign=top;align=left;spacingLeft=30;fontColor=#CD2264;dashed=0;" vertex="1" parent="1">
          <mxGeometry x="10" y="17" width="420" height="800" as="geometry" />
        </mxCell>
        <mxCell id="Ju1i_h3NqUPSqZvTvu3--3" value="Region" style="points=[[0,0],[0.25,0],[0.5,0],[0.75,0],[1,0],[1,0.25],[1,0.5],[1,0.75],[1,1],[0.75,1],[0.5,1],[0.25,1],[0,1],[0,0.75],[0,0.5],[0,0.25]];outlineConnect=0;gradientColor=none;html=1;whiteSpace=wrap;fontSize=12;fontStyle=0;container=1;pointerEvents=0;collapsible=0;recursiveResize=0;shape=mxgraph.aws4.group;grIcon=mxgraph.aws4.group_region;strokeColor=#00A4A6;fillColor=none;verticalAlign=top;align=left;spacingLeft=30;fontColor=#147EBA;dashed=1;" vertex="1" parent="Ju1i_h3NqUPSqZvTvu3--2">
          <mxGeometry x="10" y="33" width="400" height="703" as="geometry" />
        </mxCell>
        <mxCell id="Ju1i_h3NqUPSqZvTvu3--4" value="US-West-1" style="text;strokeColor=none;align=center;fillColor=none;html=1;verticalAlign=middle;whiteSpace=wrap;rounded=0;" vertex="1" parent="Ju1i_h3NqUPSqZvTvu3--3">
          <mxGeometry x="140" width="70" height="30" as="geometry" />
        </mxCell>
        <mxCell id="Ju1i_h3NqUPSqZvTvu3--5" value="&lt;font color=&quot;#000000&quot;&gt;VPC-Production&lt;/font&gt;" style="points=[[0,0],[0.25,0],[0.5,0],[0.75,0],[1,0],[1,0.25],[1,0.5],[1,0.75],[1,1],[0.75,1],[0.5,1],[0.25,1],[0,1],[0,0.75],[0,0.5],[0,0.25]];outlineConnect=0;gradientColor=none;html=1;whiteSpace=wrap;fontSize=12;fontStyle=0;container=1;pointerEvents=0;collapsible=0;recursiveResize=0;shape=mxgraph.aws4.group;grIcon=mxgraph.aws4.group_vpc2;strokeColor=#8C4FFF;fillColor=none;verticalAlign=top;align=left;spacingLeft=30;fontColor=#AAB7B8;dashed=0;" vertex="1" parent="Ju1i_h3NqUPSqZvTvu3--3">
          <mxGeometry x="10" y="60" width="380" height="643" as="geometry" />
        </mxCell>
        <mxCell id="Ju1i_h3NqUPSqZvTvu3--25" value="Auto Scaling Group" style="sketch=0;outlineConnect=0;gradientColor=none;html=1;whiteSpace=wrap;fontSize=12;fontStyle=0;shape=mxgraph.aws4.groupCenter;grIcon=mxgraph.aws4.group_auto_scaling_group;grStroke=0;strokeColor=#879196;fillColor=#ECEFEF;verticalAlign=top;align=center;fontColor=#879196;dashed=0;spacingTop=25;opacity=50;" vertex="1" parent="Ju1i_h3NqUPSqZvTvu3--5">
          <mxGeometry x="10" y="30" width="320" height="520" as="geometry" />
        </mxCell>
        <mxCell id="Ju1i_h3NqUPSqZvTvu3--6" value="&lt;font color=&quot;#000000&quot;&gt;US-West-1a&lt;/font&gt;" style="sketch=0;outlineConnect=0;gradientColor=none;html=1;whiteSpace=wrap;fontSize=12;fontStyle=0;shape=mxgraph.aws4.group;grIcon=mxgraph.aws4.group_availability_zone;strokeColor=#545B64;fillColor=none;verticalAlign=top;align=left;spacingLeft=30;fontColor=#545B64;dashed=1;" vertex="1" parent="Ju1i_h3NqUPSqZvTvu3--5">
          <mxGeometry x="20" y="81" width="300" height="200" as="geometry" />
        </mxCell>
        <mxCell id="Ju1i_h3NqUPSqZvTvu3--8" value="Private subnet" style="points=[[0,0],[0.25,0],[0.5,0],[0.75,0],[1,0],[1,0.25],[1,0.5],[1,0.75],[1,1],[0.75,1],[0.5,1],[0.25,1],[0,1],[0,0.75],[0,0.5],[0,0.25]];outlineConnect=0;gradientColor=none;html=1;whiteSpace=wrap;fontSize=12;fontStyle=0;container=1;pointerEvents=0;collapsible=0;recursiveResize=0;shape=mxgraph.aws4.group;grIcon=mxgraph.aws4.group_security_group;grStroke=0;strokeColor=#00A4A6;fillColor=#E6F6F7;verticalAlign=top;align=left;spacingLeft=30;fontColor=#147EBA;dashed=0;" vertex="1" parent="Ju1i_h3NqUPSqZvTvu3--5">
          <mxGeometry x="40" y="116" width="130" height="130" as="geometry" />
        </mxCell>
        <mxCell id="Ju1i_h3NqUPSqZvTvu3--26" value="" style="outlineConnect=0;dashed=0;verticalLabelPosition=bottom;verticalAlign=top;align=center;html=1;shape=mxgraph.aws3.ec2;fillColor=#F58534;gradientColor=none;" vertex="1" parent="Ju1i_h3NqUPSqZvTvu3--8">
          <mxGeometry x="35" y="54" width="60" height="63" as="geometry" />
        </mxCell>
        <mxCell id="Ju1i_h3NqUPSqZvTvu3--11" value="Private subnet" style="points=[[0,0],[0.25,0],[0.5,0],[0.75,0],[1,0],[1,0.25],[1,0.5],[1,0.75],[1,1],[0.75,1],[0.5,1],[0.25,1],[0,1],[0,0.75],[0,0.5],[0,0.25]];outlineConnect=0;gradientColor=none;html=1;whiteSpace=wrap;fontSize=12;fontStyle=0;container=1;pointerEvents=0;collapsible=0;recursiveResize=0;shape=mxgraph.aws4.group;grIcon=mxgraph.aws4.group_security_group;grStroke=0;strokeColor=#00A4A6;fillColor=#E6F6F7;verticalAlign=top;align=left;spacingLeft=30;fontColor=#147EBA;dashed=0;" vertex="1" parent="Ju1i_h3NqUPSqZvTvu3--5">
          <mxGeometry x="40" y="350" width="130" height="130" as="geometry" />
        </mxCell>
        <mxCell id="Ju1i_h3NqUPSqZvTvu3--7" value="&lt;font color=&quot;#000000&quot;&gt;US-West-1b&lt;/font&gt;" style="sketch=0;outlineConnect=0;gradientColor=none;html=1;whiteSpace=wrap;fontSize=12;fontStyle=0;shape=mxgraph.aws4.group;grIcon=mxgraph.aws4.group_availability_zone;strokeColor=#545B64;fillColor=none;verticalAlign=top;align=left;spacingLeft=30;fontColor=#545B64;dashed=1;" vertex="1" parent="Ju1i_h3NqUPSqZvTvu3--5">
          <mxGeometry x="20" y="300" width="300" height="200" as="geometry" />
        </mxCell>
        <mxCell id="Ju1i_h3NqUPSqZvTvu3--27" value="" style="outlineConnect=0;dashed=0;verticalLabelPosition=bottom;verticalAlign=top;align=center;html=1;shape=mxgraph.aws3.ec2;fillColor=#F58534;gradientColor=none;" vertex="1" parent="Ju1i_h3NqUPSqZvTvu3--5">
          <mxGeometry x="75" y="390" width="60" height="73" as="geometry" />
        </mxCell>
        <mxCell id="Ju1i_h3NqUPSqZvTvu3--34" value="" style="edgeStyle=orthogonalEdgeStyle;rounded=0;orthogonalLoop=1;jettySize=auto;html=1;" edge="1" parent="Ju1i_h3NqUPSqZvTvu3--5" source="Ju1i_h3NqUPSqZvTvu3--29">
          <mxGeometry relative="1" as="geometry">
            <mxPoint x="250" y="601.5" as="targetPoint" />
          </mxGeometry>
        </mxCell>
        <mxCell id="Ju1i_h3NqUPSqZvTvu3--29" value="" style="outlineConnect=0;dashed=0;verticalLabelPosition=bottom;verticalAlign=top;align=center;html=1;shape=mxgraph.aws3.iam;fillColor=#759C3E;gradientColor=none;" vertex="1" parent="Ju1i_h3NqUPSqZvTvu3--5">
          <mxGeometry x="155" y="573" width="30" height="57" as="geometry" />
        </mxCell>
        <mxCell id="Ju1i_h3NqUPSqZvTvu3--31" value="" style="edgeStyle=orthogonalEdgeStyle;html=1;endArrow=block;elbow=vertical;startArrow=none;endFill=1;strokeColor=#545B64;rounded=0;" edge="1" parent="Ju1i_h3NqUPSqZvTvu3--5">
          <mxGeometry width="100" relative="1" as="geometry">
            <mxPoint x="55" y="550" as="sourcePoint" />
            <mxPoint x="155" y="600" as="targetPoint" />
            <Array as="points">
              <mxPoint x="55" y="600" />
              <mxPoint x="155" y="600" />
            </Array>
          </mxGeometry>
        </mxCell>
        <mxCell id="Ju1i_h3NqUPSqZvTvu3--38" value="" style="outlineConnect=0;dashed=0;verticalLabelPosition=bottom;verticalAlign=top;align=center;html=1;shape=mxgraph.aws3.vpn_gateway;fillColor=#F58534;gradientColor=none;" vertex="1" parent="Ju1i_h3NqUPSqZvTvu3--5">
          <mxGeometry x="338" y="268" width="50" height="52" as="geometry" />
        </mxCell>
        <mxCell id="Ju1i_h3NqUPSqZvTvu3--39" value="" style="outlineConnect=0;dashed=0;verticalLabelPosition=bottom;verticalAlign=top;align=center;html=1;shape=mxgraph.aws3.router;fillColor=#F58534;gradientColor=none;" vertex="1" parent="Ju1i_h3NqUPSqZvTvu3--5">
          <mxGeometry x="260" y="271" width="50" height="49" as="geometry" />
        </mxCell>
        <mxCell id="Ju1i_h3NqUPSqZvTvu3--40" value="" style="edgeStyle=orthogonalEdgeStyle;html=1;endArrow=block;elbow=vertical;startArrow=none;endFill=1;strokeColor=#545B64;rounded=0;" edge="1" parent="Ju1i_h3NqUPSqZvTvu3--5">
          <mxGeometry width="100" relative="1" as="geometry">
            <mxPoint x="310" y="295" as="sourcePoint" />
            <mxPoint x="340" y="295" as="targetPoint" />
          </mxGeometry>
        </mxCell>
        <mxCell id="Ju1i_h3NqUPSqZvTvu3--43" value="" style="outlineConnect=0;dashed=0;verticalLabelPosition=bottom;verticalAlign=top;align=center;html=1;shape=mxgraph.aws3.bucket;fillColor=#E05243;gradientColor=none;" vertex="1" parent="Ju1i_h3NqUPSqZvTvu3--5">
          <mxGeometry x="259" y="572" width="50" height="50" as="geometry" />
        </mxCell>
        <mxCell id="Ju1i_h3NqUPSqZvTvu3--35" value="" style="outlineConnect=0;dashed=0;verticalLabelPosition=bottom;verticalAlign=top;align=center;html=1;shape=mxgraph.aws3.customer_gateway;fillColor=#F58536;gradientColor=none;" vertex="1" parent="1">
          <mxGeometry x="570" y="380" width="49" height="50" as="geometry" />
        </mxCell>
        <mxCell id="Ju1i_h3NqUPSqZvTvu3--36" value="On-Premise" style="sketch=0;outlineConnect=0;gradientColor=none;html=1;whiteSpace=wrap;fontSize=12;fontStyle=0;shape=mxgraph.aws4.group;grIcon=mxgraph.aws4.group_on_premise;strokeColor=#858B94;fillColor=none;verticalAlign=top;align=left;spacingLeft=30;fontColor=#858B94;dashed=0;" vertex="1" parent="1">
          <mxGeometry x="600" y="200" width="210" height="400" as="geometry" />
        </mxCell>
        <mxCell id="Ju1i_h3NqUPSqZvTvu3--37" value="" style="sketch=0;points=[[0,0,0],[0.25,0,0],[0.5,0,0],[0.75,0,0],[1,0,0],[0,1,0],[0.25,1,0],[0.5,1,0],[0.75,1,0],[1,1,0],[0,0.25,0],[0,0.5,0],[0,0.75,0],[1,0.25,0],[1,0.5,0],[1,0.75,0]];outlineConnect=0;fontColor=#232F3E;fillColor=#8C4FFF;strokeColor=#ffffff;dashed=0;verticalLabelPosition=bottom;verticalAlign=top;align=center;html=1;fontSize=12;fontStyle=0;aspect=fixed;shape=mxgraph.aws4.resourceIcon;resIcon=mxgraph.aws4.site_to_site_vpn;" vertex="1" parent="1">
          <mxGeometry x="470" y="380" width="50" height="50" as="geometry" />
        </mxCell>
        <mxCell id="Ju1i_h3NqUPSqZvTvu3--41" value="" style="edgeStyle=orthogonalEdgeStyle;html=1;endArrow=block;elbow=vertical;startArrow=none;endFill=1;strokeColor=#545B64;rounded=0;entryX=0;entryY=0.5;entryDx=0;entryDy=0;entryPerimeter=0;" edge="1" parent="1" target="Ju1i_h3NqUPSqZvTvu3--37">
          <mxGeometry width="100" relative="1" as="geometry">
            <mxPoint x="421" y="405" as="sourcePoint" />
            <mxPoint x="451" y="405" as="targetPoint" />
          </mxGeometry>
        </mxCell>
        <mxCell id="Ju1i_h3NqUPSqZvTvu3--42" value="" style="edgeStyle=orthogonalEdgeStyle;html=1;endArrow=block;elbow=vertical;startArrow=none;endFill=1;strokeColor=#545B64;rounded=0;entryX=0;entryY=0.5;entryDx=0;entryDy=0;entryPerimeter=0;" edge="1" parent="1">
          <mxGeometry width="100" relative="1" as="geometry">
            <mxPoint x="521" y="405" as="sourcePoint" />
            <mxPoint x="570" y="405" as="targetPoint" />
          </mxGeometry>
        </mxCell>
      </root>
    </mxGraphModel>
  </diagram>
</mxfile>
